P3
#DGtal PNM Writer

16 16
255
168 0 0 165 0 0 163 0 0 160 0 0 158 0 0 156 0 0 153 0 0 151 0 0 148 0 0 146 0 0 144 0 0 141 0 0 139 0 0 136 0 0 134 0 0 132 0 0 206 0 0 204 0 0 201 0 0 199 0 0 197 0 0 194 0 0 192 0 0 189 0 0 187 0 0 185 0 0 182 0 0 180 0 0 177 0 0 175 0 0 172 0 0 170 0 0 245 0 0 242 0 0 240 0 0 238 0 0 235 0 0 233 0 0 230 0 0 228 0 0 226 0 0 223 0 0 221 0 0 218 0 0 216 0 0 213 0 0 211 0 0 209 0 0 255 32 0 255 30 0 255 27 0 255 24 0 255 21 0 255 19 0 255 16 0 255 13 0 255 10 0 255 8 0 255 5 0 255 2 0 255 0 0 252 0 0 250 0 0 247 0 0 255 76 0 255 74 0 255 71 0 255 68 0 255 65 0 255 63 0 255 60 0 255 57 0 255 54 0 255 52 0 255 49 0 255 46 0 255 43 0 255 41 0 255 38 0 255 35 0 255 120 0 255 118 0 255 115 0 255 112 0 255 109 0 255 107 0 255 104 0 255 101 0 255 98 0 255 96 0 255 93 0 255 90 0 255 87 0 255 85 0 255 82 0 255 79 0 255 160 0 255 158 0 255 155 0 255 153 0 255 151 0 255 149 0 255 146 0 255 144 0 255 142 0 255 140 0 255 137 0 255 134 0 255 131 0 255 129 0 255 126 0 255 123 0 255 196 0 255 194 0 255 191 0 255 189 0 255 187 0 255 185 0 255 182 0 255 180 0 255 178 0 255 176 0 255 173 0 255 171 0 255 169 0 255 167 0 255 164 0 255 162 0 255 232 0 255 230 0 255 227 0 255 225 0 255 223 0 255 221 0 255 218 0 255 216 0 255 214 0 255 212 0 255 209 0 255 207 0 255 205 0 255 203 0 255 200 0 255 198 0 225 255 30 229 255 25 235 255 19 240 255 15 244 255 10 249 255 5 255 255 0 255 252 0 255 250 0 255 248 0 255 245 0 255 243 0 255 241 0 255 239 0 255 236 0 255 234 0 145 255 110 149 255 105 155 255 99 160 255 95 164 255 90 169 255 85 175 255 79 180 255 74 185 255 69 190 255 65 195 255 59 200 255 54 205 255 50 210 255 45 215 255 39 220 255 35 65 255 190 69 255 185 75 255 180 80 255 175 84 255 170 89 255 165 95 255 160 99 255 155 104 255 150 109 255 145 115 255 139 120 255 134 125 255 130 130 255 125 135 255 119 140 255 115 0 240 255 0 245 255 0 250 255 0 255 255 4 255 250 10 255 244 15 255 240 20 255 234 25 255 229 30 255 225 34 255 220 40 255 214 45 255 210 49 255 205 54 255 200 60 255 195 0 160 255 0 165 255 0 170 255 0 175 255 0 179 255 0 185 255 0 190 255 0 195 255 0 200 255 0 205 255 0 210 255 0 215 255 0 220 255 0 225 255 0 230 255 0 235 255 0 80 255 0 85 255 0 89 255 0 95 255 0 100 255 0 105 255 0 110 255 0 115 255 0 120 255 0 125 255 0 130 255 0 135 255 0 140 255 0 145 255 0 150 255 0 155 255 0 0 255 0 5 255 0 10 255 0 15 255 0 20 255 0 25 255 0 30 255 0 35 255 0 40 255 0 44 255 0 50 255 0 55 255 0 60 255 0 65 255 0 70 255 0 75 255 