P3
#DGtal PNM Writer

16 16
255
255 25 106 255 25 101 255 25 95 255 25 90 255 25 84 255 25 79 255 25 74 255 25 68 255 25 63 255 25 57 255 25 52 255 25 47 255 25 41 255 25 36 255 25 30 255 25 25 255 25 192 255 25 187 255 25 182 255 25 176 255 25 171 255 25 165 255 25 160 255 25 155 255 25 149 255 25 144 255 25 138 255 25 133 255 25 128 255 25 122 255 25 117 255 25 111 230 25 255 236 25 255 241 25 255 246 25 255 252 25 255 255 25 252 255 25 246 255 25 241 255 25 236 255 25 230 255 25 225 255 25 219 255 25 214 255 25 209 255 25 203 255 25 198 144 25 255 149 25 255 155 25 255 160 25 255 165 25 255 171 25 255 176 25 255 182 25 255 187 25 255 192 25 255 198 25 255 203 25 255 209 25 255 214 25 255 219 25 255 225 25 255 57 25 255 63 25 255 68 25 255 74 25 255 79 25 255 84 25 255 90 25 255 95 25 255 101 25 255 106 25 255 111 25 255 117 25 255 122 25 255 128 25 255 133 25 255 138 25 255 25 79 255 25 74 255 25 68 255 25 63 255 25 57 255 25 52 255 25 47 255 25 41 255 25 36 255 25 30 255 25 25 255 30 25 255 36 25 255 41 25 255 47 25 255 52 25 255 25 165 255 25 160 255 25 155 255 25 149 255 25 144 255 25 138 255 25 133 255 25 128 255 25 122 255 25 117 255 25 111 255 25 106 255 25 101 255 25 95 255 25 90 255 25 84 255 25 252 255 25 246 255 25 241 255 25 236 255 25 230 255 25 225 255 25 219 255 25 214 255 25 209 255 25 203 255 25 198 255 25 192 255 25 187 255 25 182 255 25 176 255 25 171 255 25 255 171 25 255 176 25 255 182 25 255 187 25 255 192 25 255 198 25 255 203 25 255 209 25 255 214 25 255 219 25 255 225 25 255 230 25 255 236 25 255 241 25 255 246 25 255 252 25 255 84 25 255 90 25 255 95 25 255 101 25 255 106 25 255 111 25 255 117 25 255 122 25 255 128 25 255 133 25 255 138 25 255 144 25 255 149 25 255 155 25 255 160 25 255 165 52 255 25 47 255 25 41 255 25 36 255 25 30 255 25 25 255 25 25 255 30 25 255 36 25 255 41 25 255 47 25 255 52 25 255 57 25 255 63 25 255 68 25 255 74 25 255 79 138 255 25 133 255 25 128 255 25 122 255 25 117 255 25 111 255 25 106 255 25 101 255 25 95 255 25 90 255 25 84 255 25 79 255 25 74 255 25 68 255 25 63 255 25 57 255 25 225 255 25 219 255 25 214 255 25 209 255 25 203 255 25 198 255 25 192 255 25 187 255 25 182 255 25 176 255 25 171 255 25 165 255 25 160 255 25 155 255 25 149 255 25 144 255 25 255 198 25 255 203 25 255 209 25 255 214 25 255 219 25 255 225 25 255 230 25 255 236 25 255 241 25 255 246 25 255 252 25 252 255 25 246 255 25 241 255 25 236 255 25 230 255 25 255 111 25 255 117 25 255 122 25 255 128 25 255 133 25 255 138 25 255 144 25 255 149 25 255 155 25 255 160 25 255 165 25 255 171 25 255 176 25 255 182 25 255 187 25 255 192 25 255 25 25 255 30 25 255 36 25 255 41 25 255 47 25 255 52 25 255 57 25 255 63 25 255 68 25 255 74 25 255 79 25 255 84 25 255 90 25 255 95 25 255 101 25 255 106 25 