<?xml version="1.0" encoding="ISO-8859-1" standalone="no"?>
<!DOCTYPE svg PUBLIC "-//W3C//DTD SVG 1.1//EN"
 "http://www.w3.org/Graphics/SVG/1.1/DTD/svg11.dtd">
<svg width="128mm" height="128mm" 
     viewBox="0 0 362.835 362.835" 
     xmlns="http://www.w3.org/2000/svg" version="1.1" xmlns:xlink="http://www.w3.org/1999/xlink" >
<desc>tmp.svg, created with the Board library (Copyleft) 2007 Sebastien Fourey</desc>
<image x="0" y="0" width="362.83" height="362.83"  xlink:href="tmp.gif" >
 <title>My image</title>
 </image>
<polyline fill="none" stroke="rgb(255,0,0)" stroke-width="0.176mm" style="stroke-linecap:butt;stroke-linejoin:miter"
          points="133.23,56.69 130.39,56.69 130.39,53.86 133.23,53.86 136.06,53.86 136.06,56.69 136.06,59.53
                   138.9,59.53 138.9,62.36 136.06,62.36 136.06,65.2 138.9,65.2 138.9,62.36
                   141.73,62.36 141.73,65.2 144.57,65.2 144.57,68.03 141.73,68.03 138.9,68.03
                   138.9,70.87 141.73,70.87 144.57,70.87 144.57,73.7 147.4,73.7 147.4,70.87
                   150.24,70.87 150.24,68.03 147.4,68.03 147.4,65.2 150.24,65.2 153.07,65.2
                   153.07,68.03 155.91,68.03 158.74,68.03 158.74,70.87 161.57,70.87 161.57,73.7
                   161.57,76.54 161.57,79.37 158.74,79.37 158.74,76.54 158.74,73.7 155.91,73.7
                   155.91,76.54 155.91,79.37 158.74,79.37 158.74,82.2 161.57,82.2 161.57,85.04
                   161.57,87.87 164.41,87.87 164.41,85.04 164.41,82.2 167.24,82.2 167.24,85.04
                   167.24,87.87 167.24,90.71 164.41,90.71 161.57,90.71 161.57,93.54 161.57,96.38
                   161.57,99.21 164.41,99.21 164.41,96.38 164.41,93.54 167.24,93.54 167.24,90.71
                   170.08,90.71 170.08,93.54 170.08,96.38 172.91,96.38 172.91,99.21 172.91,102.05
                   175.75,102.05 175.75,104.88 172.91,104.88 172.91,107.72 175.75,107.72 175.75,104.88
                   178.58,104.88 181.42,104.88 181.42,107.72 178.58,107.72 178.58,110.55 181.42,110.55
                   181.42,107.72 184.25,107.72 187.09,107.72 187.09,110.55 184.25,110.55 184.25,113.39
                   187.09,113.39 187.09,116.22 184.25,116.22 181.42,116.22 181.42,119.06 184.25,119.06
                   184.25,121.89 187.09,121.89 187.09,124.72 184.25,124.72 184.25,127.56 184.25,130.39
                   187.09,130.39 189.92,130.39 189.92,133.23 192.76,133.23 192.76,130.39 195.59,130.39
                   195.59,133.23 195.59,136.06 198.43,136.06 198.43,133.23 201.26,133.23 201.26,136.06
                   204.09,136.06 204.09,138.9 206.93,138.9 206.93,136.06 204.09,136.06 204.09,133.23
                   201.26,133.23 201.26,130.39 204.09,130.39 204.09,127.56 204.09,124.72 201.26,124.72
                   201.26,121.89 201.26,119.06 204.09,119.06 204.09,121.89 206.93,121.89 206.93,124.72
                   209.76,124.72 212.6,124.72 212.6,127.56 209.76,127.56 209.76,130.39 206.93,130.39
                   206.93,133.23 209.76,133.23 209.76,130.39 212.6,130.39 212.6,127.56 215.43,127.56
                   215.43,130.39 215.43,133.23 218.27,133.23 218.27,130.39 218.27,127.56 215.43,127.56
                   215.43,124.72 212.6,124.72 212.6,121.89 209.76,121.89 206.93,121.89 206.93,119.06
                   209.76,119.06 212.6,119.06 215.43,119.06 215.43,116.22 218.27,116.22 218.27,113.39
                   221.1,113.39 221.1,110.55 218.27,110.55 218.27,107.72 221.1,107.72 223.94,107.72
                   223.94,104.88 226.77,104.88 229.61,104.88 229.61,102.05 232.44,102.05 235.28,102.05
                   235.28,99.21 238.11,99.21 238.11,96.38 235.28,96.38 232.44,96.38 232.44,93.54
                   229.61,93.54 226.77,93.54 223.94,93.54 223.94,90.71 221.1,90.71 221.1,93.54
                   218.27,93.54 218.27,96.38 215.43,96.38 212.6,96.38 212.6,93.54 212.6,90.71
                   215.43,90.71 218.27,90.71 218.27,87.87 221.1,87.87 223.94,87.87 223.94,85.04
                   223.94,82.2 226.77,82.2 226.77,85.04 229.61,85.04 229.61,87.87 232.44,87.87
                   235.28,87.87 235.28,90.71 235.28,93.54 238.11,93.54 240.94,93.54 240.94,96.38
                   243.78,96.38 243.78,99.21 246.61,99.21 249.45,99.21 249.45,102.05 252.28,102.05
                   252.28,104.88 249.45,104.88 249.45,107.72 252.28,107.72 252.28,110.55 249.45,110.55
                   249.45,113.39 252.28,113.39 252.28,110.55 255.12,110.55 255.12,107.72 255.12,104.88
                   257.95,104.88 260.79,104.88 260.79,102.05 257.95,102.05 255.12,102.05 252.28,102.05
                   252.28,99.21 249.45,99.21 249.45,96.38 249.45,93.54 252.28,93.54 252.28,96.38
                   255.12,96.38 255.12,99.21 257.95,99.21 257.95,96.38 257.95,93.54 257.95,90.71
                   260.79,90.71 263.62,90.71 266.46,90.71 269.29,90.71 272.13,90.71 272.13,93.54
                   272.13,96.38 272.13,99.21 272.13,102.05 269.29,102.05 269.29,104.88 269.29,107.72
                   269.29,110.55 272.13,110.55 272.13,107.72 272.13,104.88 274.96,104.88 274.96,107.72
                   274.96,110.55 277.8,110.55 277.8,107.72 280.63,107.72 280.63,110.55 280.63,113.39
                   280.63,116.22 280.63,119.06 280.63,121.89 277.8,121.89 277.8,119.06 277.8,116.22
                   274.96,116.22 274.96,119.06 274.96,121.89 277.8,121.89 277.8,124.72 277.8,127.56
                   274.96,127.56 274.96,124.72 272.13,124.72 272.13,127.56 274.96,127.56 274.96,130.39
                   277.8,130.39 277.8,127.56 280.63,127.56 280.63,130.39 283.46,130.39 283.46,133.23
                   283.46,136.06 283.46,138.9 280.63,138.9 280.63,136.06 280.63,133.23 277.8,133.23
                   274.96,133.23 272.13,133.23 272.13,130.39 269.29,130.39 269.29,133.23 266.46,133.23
                   266.46,136.06 269.29,136.06 269.29,138.9 272.13,138.9 272.13,141.73 272.13,144.57
                   269.29,144.57 266.46,144.57 263.62,144.57 260.79,144.57 260.79,147.4 257.95,147.4
                   257.95,150.24 257.95,153.07 260.79,153.07 260.79,155.91 263.62,155.91 263.62,153.07
                   266.46,153.07 266.46,150.24 269.29,150.24 269.29,153.07 272.13,153.07 272.13,155.91
                   269.29,155.91 266.46,155.91 266.46,158.74 266.46,161.57 263.62,161.57 263.62,158.74
                   260.79,158.74 260.79,161.57 257.95,161.57 255.12,161.57 255.12,164.41 252.28,164.41
                   252.28,161.57 249.45,161.57 246.61,161.57 243.78,161.57 243.78,164.41 240.94,164.41
                   238.11,164.41 238.11,161.57 235.28,161.57 232.44,161.57 232.44,158.74 232.44,155.91
                   229.61,155.91 229.61,158.74 229.61,161.57 232.44,161.57 232.44,164.41 235.28,164.41
                   235.28,167.24 238.11,167.24 238.11,170.08 235.28,170.08 232.44,170.08 229.61,170.08
                   229.61,172.91 226.77,172.91 226.77,175.75 229.61,175.75 232.44,175.75 232.44,172.91
                   235.28,172.91 238.11,172.91 238.11,175.75 235.28,175.75 235.28,178.58 232.44,178.58
                   229.61,178.58 226.77,178.58 226.77,181.42 226.77,184.25 229.61,184.25 229.61,181.42
                   232.44,181.42 232.44,184.25 235.28,184.25 238.11,184.25 238.11,187.09 240.94,187.09
                   243.78,187.09 243.78,189.92 246.61,189.92 246.61,192.76 246.61,195.59 249.45,195.59
                   249.45,192.76 249.45,189.92 252.28,189.92 252.28,192.76 252.28,195.59 255.12,195.59
                   255.12,192.76 255.12,189.92 255.12,187.09 255.12,184.25 252.28,184.25 252.28,181.42
                   255.12,181.42 257.95,181.42 257.95,184.25 257.95,187.09 257.95,189.92 260.79,189.92
                   260.79,192.76 263.62,192.76 263.62,195.59 260.79,195.59 260.79,198.43 263.62,198.43
                   266.46,198.43 266.46,201.26 263.62,201.26 263.62,204.09 266.46,204.09 266.46,201.26
                   269.29,201.26 269.29,204.09 272.13,204.09 272.13,206.93 269.29,206.93 266.46,206.93
                   266.46,209.76 269.29,209.76 272.13,209.76 272.13,206.93 274.96,206.93 274.96,209.76
                   277.8,209.76 280.63,209.76 280.63,212.6 283.46,212.6 283.46,215.43 283.46,218.27
                   286.3,218.27 286.3,215.43 286.3,212.6 289.13,212.6 291.97,212.6 294.8,212.6
                   294.8,215.43 291.97,215.43 291.97,218.27 294.8,218.27 297.64,218.27 300.47,218.27
                   303.31,218.27 303.31,221.1 303.31,223.94 300.47,223.94 300.47,221.1 297.64,221.1
                   294.8,221.1 291.97,221.1 291.97,223.94 294.8,223.94 294.8,226.77 297.64,226.77
                   297.64,229.61 294.8,229.61 294.8,232.44 294.8,235.28 297.64,235.28 297.64,238.11
                   294.8,238.11 291.97,238.11 291.97,235.28 289.13,235.28 286.3,235.28 286.3,238.11
                   289.13,238.11 291.97,238.11 291.97,240.94 289.13,240.94 286.3,240.94 286.3,243.78
                   289.13,243.78 291.97,243.78 291.97,240.94 294.8,240.94 297.64,240.94 297.64,238.11
                   300.47,238.11 300.47,240.94 300.47,243.78 297.64,243.78 294.8,243.78 294.8,246.61
                   297.64,246.61 300.47,246.61 303.31,246.61 303.31,243.78 306.14,243.78 306.14,246.61
                   306.14,249.45 303.31,249.45 300.47,249.45 297.64,249.45 297.64,252.28 297.64,255.12
                   297.64,257.95 297.64,260.79 294.8,260.79 294.8,263.62 291.97,263.62 291.97,260.79
                   291.97,257.95 294.8,257.95 294.8,255.12 294.8,252.28 294.8,249.45 291.97,249.45
                   289.13,249.45 289.13,252.28 286.3,252.28 286.3,249.45 283.46,249.45 283.46,252.28
                   280.63,252.28 280.63,255.12 277.8,255.12 277.8,257.95 277.8,260.79 280.63,260.79
                   280.63,257.95 283.46,257.95 286.3,257.95 286.3,260.79 286.3,263.62 286.3,266.46
                   289.13,266.46 289.13,269.29 286.3,269.29 286.3,272.13 283.46,272.13 280.63,272.13
                   280.63,269.29 283.46,269.29 283.46,266.46 280.63,266.46 277.8,266.46 277.8,269.29
                   277.8,272.13 277.8,274.96 277.8,277.8 280.63,277.8 280.63,274.96 283.46,274.96
                   283.46,277.8 286.3,277.8 286.3,280.63 283.46,280.63 280.63,280.63 280.63,283.46
                   277.8,283.46 274.96,283.46 274.96,280.63 272.13,280.63 269.29,280.63 269.29,283.46
                   266.46,283.46 266.46,286.3 263.62,286.3 263.62,283.46 263.62,280.63 263.62,277.8
                   266.46,277.8 269.29,277.8 272.13,277.8 274.96,277.8 274.96,274.96 274.96,272.13
                   272.13,272.13 272.13,269.29 272.13,266.46 269.29,266.46 269.29,263.62 269.29,260.79
                   269.29,257.95 266.46,257.95 266.46,260.79 266.46,263.62 266.46,266.46 269.29,266.46
                   269.29,269.29 266.46,269.29 266.46,272.13 263.62,272.13 263.62,269.29 263.62,266.46
                   260.79,266.46 260.79,263.62 260.79,260.79 257.95,260.79 255.12,260.79 255.12,257.95
                   257.95,257.95 257.95,255.12 260.79,255.12 260.79,252.28 257.95,252.28 255.12,252.28
                   255.12,249.45 257.95,249.45 257.95,246.61 260.79,246.61 263.62,246.61 263.62,243.78
                   263.62,240.94 260.79,240.94 260.79,243.78 257.95,243.78 257.95,240.94 255.12,240.94
                   255.12,243.78 257.95,243.78 257.95,246.61 255.12,246.61 255.12,249.45 252.28,249.45
                   252.28,246.61 249.45,246.61 249.45,249.45 252.28,249.45 252.28,252.28 252.28,255.12
                   252.28,257.95 249.45,257.95 249.45,255.12 249.45,252.28 246.61,252.28 243.78,252.28
                   243.78,249.45 246.61,249.45 246.61,246.61 243.78,246.61 240.94,246.61 240.94,243.78
                   243.78,243.78 243.78,240.94 240.94,240.94 240.94,243.78 238.11,243.78 235.28,243.78
                   235.28,240.94 238.11,240.94 238.11,238.11 235.28,238.11 235.28,240.94 232.44,240.94
                   229.61,240.94 229.61,238.11 226.77,238.11 223.94,238.11 223.94,235.28 221.1,235.28
                   221.1,232.44 223.94,232.44 223.94,229.61 223.94,226.77 221.1,226.77 221.1,229.61
                   221.1,232.44 218.27,232.44 215.43,232.44 215.43,229.61 215.43,226.77 212.6,226.77
                   212.6,229.61 209.76,229.61 206.93,229.61 204.09,229.61 204.09,232.44 204.09,235.28
                   201.26,235.28 198.43,235.28 198.43,238.11 201.26,238.11 201.26,240.94 198.43,240.94
                   198.43,243.78 195.59,243.78 195.59,246.61 192.76,246.61 189.92,246.61 189.92,249.45
                   187.09,249.45 187.09,252.28 189.92,252.28 189.92,249.45 192.76,249.45 195.59,249.45
                   195.59,252.28 192.76,252.28 192.76,255.12 195.59,255.12 198.43,255.12 201.26,255.12
                   201.26,257.95 198.43,257.95 198.43,260.79 201.26,260.79 201.26,263.62 201.26,266.46
                   201.26,269.29 204.09,269.29 204.09,272.13 206.93,272.13 206.93,274.96 204.09,274.96
                   201.26,274.96 201.26,272.13 198.43,272.13 195.59,272.13 195.59,269.29 198.43,269.29
                   198.43,266.46 198.43,263.62 195.59,263.62 195.59,260.79 192.76,260.79 192.76,257.95
                   189.92,257.95 189.92,260.79 187.09,260.79 184.25,260.79 181.42,260.79 178.58,260.79
                   178.58,257.95 181.42,257.95 181.42,255.12 184.25,255.12 184.25,252.28 181.42,252.28
                   181.42,255.12 178.58,255.12 178.58,257.95 175.75,257.95 175.75,260.79 178.58,260.79
                   178.58,263.62 175.75,263.62 175.75,266.46 178.58,266.46 178.58,263.62 181.42,263.62
                   184.25,263.62 187.09,263.62 189.92,263.62 189.92,260.79 192.76,260.79 192.76,263.62
                   195.59,263.62 195.59,266.46 192.76,266.46 192.76,269.29 192.76,272.13 195.59,272.13
                   195.59,274.96 195.59,277.8 195.59,280.63 192.76,280.63 192.76,277.8 192.76,274.96
                   189.92,274.96 189.92,272.13 187.09,272.13 184.25,272.13 184.25,274.96 187.09,274.96
                   189.92,274.96 189.92,277.8 187.09,277.8 187.09,280.63 187.09,283.46 187.09,286.3
                   189.92,286.3 189.92,289.13 187.09,289.13 187.09,291.97 187.09,294.8 184.25,294.8
                   181.42,294.8 178.58,294.8 178.58,297.64 175.75,297.64 175.75,300.47 175.75,303.31
                   172.91,303.31 170.08,303.31 170.08,300.47 167.24,300.47 167.24,303.31 164.41,303.31
                   164.41,306.14 164.41,308.98 161.57,308.98 158.74,308.98 155.91,308.98 155.91,306.14
                   153.07,306.14 153.07,303.31 150.24,303.31 150.24,306.14 147.4,306.14 147.4,303.31
                   144.57,303.31 144.57,306.14 147.4,306.14 147.4,308.98 144.57,308.98 141.73,308.98
                   141.73,306.14 141.73,303.31 141.73,300.47 144.57,300.47 147.4,300.47 150.24,300.47
                   150.24,297.64 147.4,297.64 144.57,297.64 141.73,297.64 141.73,294.8 141.73,291.97
                   141.73,289.13 141.73,286.3 144.57,286.3 144.57,283.46 141.73,283.46 141.73,286.3
                   138.9,286.3 138.9,283.46 136.06,283.46 136.06,286.3 136.06,289.13 133.23,289.13
                   133.23,286.3 133.23,283.46 130.39,283.46 130.39,280.63 130.39,277.8 130.39,274.96
                   130.39,272.13 133.23,272.13 133.23,274.96 136.06,274.96 136.06,277.8 138.9,277.8
                   138.9,274.96 138.9,272.13 138.9,269.29 138.9,266.46 138.9,263.62 141.73,263.62
                   141.73,266.46 141.73,269.29 144.57,269.29 144.57,266.46 144.57,263.62 147.4,263.62
                   147.4,266.46 150.24,266.46 150.24,269.29 147.4,269.29 147.4,272.13 150.24,272.13
                   150.24,269.29 153.07,269.29 155.91,269.29 155.91,272.13 153.07,272.13 153.07,274.96
                   155.91,274.96 155.91,272.13 158.74,272.13 158.74,269.29 155.91,269.29 155.91,266.46
                   155.91,263.62 153.07,263.62 153.07,266.46 150.24,266.46 150.24,263.62 147.4,263.62
                   147.4,260.79 150.24,260.79 150.24,257.95 147.4,257.95 144.57,257.95 144.57,260.79
                   144.57,263.62 141.73,263.62 141.73,260.79 141.73,257.95 141.73,255.12 141.73,252.28
                   138.9,252.28 138.9,255.12 136.06,255.12 136.06,252.28 136.06,249.45 138.9,249.45
                   141.73,249.45 141.73,246.61 138.9,246.61 136.06,246.61 133.23,246.61 133.23,243.78
                   136.06,243.78 136.06,240.94 133.23,240.94 130.39,240.94 130.39,238.11 133.23,238.11
                   136.06,238.11 138.9,238.11 138.9,240.94 141.73,240.94 141.73,243.78 144.57,243.78
                   144.57,240.94 144.57,238.11 141.73,238.11 138.9,238.11 138.9,235.28 141.73,235.28
                   141.73,232.44 144.57,232.44 144.57,235.28 147.4,235.28 150.24,235.28 150.24,232.44
                   153.07,232.44 155.91,232.44 155.91,235.28 155.91,238.11 153.07,238.11 153.07,240.94
                   155.91,240.94 155.91,238.11 158.74,238.11 158.74,240.94 161.57,240.94 161.57,238.11
                   158.74,238.11 158.74,235.28 161.57,235.28 161.57,232.44 164.41,232.44 164.41,235.28
                   164.41,238.11 167.24,238.11 167.24,240.94 164.41,240.94 164.41,243.78 167.24,243.78
                   170.08,243.78 170.08,240.94 172.91,240.94 172.91,243.78 175.75,243.78 175.75,240.94
                   178.58,240.94 181.42,240.94 181.42,243.78 181.42,246.61 181.42,249.45 184.25,249.45
                   184.25,246.61 184.25,243.78 184.25,240.94 187.09,240.94 187.09,243.78 189.92,243.78
                   192.76,243.78 192.76,240.94 192.76,238.11 189.92,238.11 187.09,238.11 187.09,235.28
                   189.92,235.28 189.92,232.44 192.76,232.44 192.76,229.61 192.76,226.77 189.92,226.77
                   189.92,229.61 189.92,232.44 187.09,232.44 187.09,235.28 184.25,235.28 184.25,238.11
                   184.25,240.94 181.42,240.94 181.42,238.11 178.58,238.11 175.75,238.11 175.75,240.94
                   172.91,240.94 172.91,238.11 170.08,238.11 167.24,238.11 167.24,235.28 167.24,232.44
                   164.41,232.44 164.41,229.61 161.57,229.61 161.57,226.77 161.57,223.94 158.74,223.94
                   158.74,226.77 158.74,229.61 158.74,232.44 155.91,232.44 155.91,229.61 155.91,226.77
                   153.07,226.77 153.07,229.61 150.24,229.61 150.24,232.44 147.4,232.44 144.57,232.44
                   144.57,229.61 144.57,226.77 147.4,226.77 147.4,223.94 150.24,223.94 150.24,221.1
                   150.24,218.27 147.4,218.27 147.4,215.43 150.24,215.43 150.24,212.6 150.24,209.76
                   147.4,209.76 147.4,212.6 144.57,212.6 141.73,212.6 138.9,212.6 138.9,215.43
                   141.73,215.43 141.73,218.27 144.57,218.27 144.57,221.1 141.73,221.1 138.9,221.1
                   138.9,223.94 136.06,223.94 136.06,221.1 133.23,221.1 133.23,223.94 130.39,223.94
                   130.39,221.1 127.56,221.1 127.56,218.27 130.39,218.27 130.39,215.43 130.39,212.6
                   127.56,212.6 127.56,215.43 124.72,215.43 121.89,215.43 119.06,215.43 119.06,212.6
                   116.22,212.6 116.22,215.43 119.06,215.43 119.06,218.27 116.22,218.27 116.22,221.1
                   113.39,221.1 113.39,218.27 110.55,218.27 110.55,221.1 107.72,221.1 107.72,218.27
                   104.88,218.27 102.05,218.27 99.21,218.27 96.38,218.27 96.38,215.43 93.54,215.43
                   93.54,218.27 93.54,221.1 93.54,223.94 90.71,223.94 90.71,226.77 90.71,229.61
                   93.54,229.61 96.38,229.61 96.38,226.77 99.21,226.77 102.05,226.77 102.05,223.94
                   102.05,221.1 104.88,221.1 104.88,223.94 104.88,226.77 104.88,229.61 102.05,229.61
                   99.21,229.61 99.21,232.44 96.38,232.44 96.38,235.28 93.54,235.28 93.54,232.44
                   90.71,232.44 87.87,232.44 87.87,229.61 87.87,226.77 87.87,223.94 87.87,221.1
                   90.71,221.1 90.71,218.27 87.87,218.27 87.87,221.1 85.04,221.1 82.2,221.1
                   82.2,218.27 82.2,215.43 79.37,215.43 76.54,215.43 73.7,215.43 73.7,212.6
                   70.87,212.6 70.87,209.76 68.03,209.76 65.2,209.76 65.2,206.93 62.36,206.93
                   62.36,209.76 65.2,209.76 65.2,212.6 62.36,212.6 59.53,212.6 59.53,215.43
                   59.53,218.27 56.69,218.27 56.69,215.43 53.86,215.43 51.02,215.43 51.02,212.6
                   51.02,209.76 51.02,206.93 53.86,206.93 53.86,209.76 56.69,209.76 59.53,209.76
                   59.53,206.93 59.53,204.09 62.36,204.09 62.36,201.26 65.2,201.26 65.2,204.09
                   68.03,204.09 68.03,201.26 70.87,201.26 70.87,198.43 68.03,198.43 68.03,195.59
                   70.87,195.59 73.7,195.59 73.7,198.43 76.54,198.43 76.54,201.26 79.37,201.26
                   79.37,198.43 76.54,198.43 76.54,195.59 73.7,195.59 73.7,192.76 76.54,192.76
                   76.54,189.92 79.37,189.92 79.37,187.09 79.37,184.25 76.54,184.25 76.54,187.09
                   76.54,189.92 73.7,189.92 73.7,192.76 70.87,192.76 68.03,192.76 68.03,195.59
                   65.2,195.59 65.2,198.43 62.36,198.43 59.53,198.43 59.53,201.26 56.69,201.26
                   56.69,198.43 53.86,198.43 53.86,195.59 53.86,192.76 51.02,192.76 51.02,195.59
                   48.19,195.59 48.19,192.76 45.35,192.76 42.52,192.76 39.69,192.76 39.69,189.92
                   39.69,187.09 39.69,184.25 42.52,184.25 42.52,187.09 42.52,189.92 45.35,189.92
                   45.35,187.09 48.19,187.09 48.19,189.92 51.02,189.92 53.86,189.92 56.69,189.92
                   59.53,189.92 59.53,192.76 62.36,192.76 62.36,189.92 65.2,189.92 65.2,187.09
                   65.2,184.25 62.36,184.25 62.36,181.42 65.2,181.42 65.2,178.58 62.36,178.58
                   62.36,175.75 65.2,175.75 65.2,172.91 68.03,172.91 70.87,172.91 70.87,175.75
                   73.7,175.75 73.7,178.58 70.87,178.58 70.87,181.42 73.7,181.42 73.7,178.58
                   76.54,178.58 76.54,175.75 73.7,175.75 73.7,172.91 76.54,172.91 79.37,172.91
                   79.37,175.75 82.2,175.75 82.2,172.91 79.37,172.91 79.37,170.08 82.2,170.08
                   85.04,170.08 85.04,167.24 82.2,167.24 79.37,167.24 79.37,164.41 76.54,164.41
                   76.54,161.57 76.54,158.74 79.37,158.74 79.37,161.57 82.2,161.57 82.2,164.41
                   85.04,164.41 85.04,161.57 87.87,161.57 87.87,164.41 90.71,164.41 90.71,167.24
                   90.71,170.08 87.87,170.08 87.87,172.91 90.71,172.91 90.71,170.08 93.54,170.08
                   93.54,167.24 93.54,164.41 93.54,161.57 93.54,158.74 96.38,158.74 96.38,161.57
                   99.21,161.57 99.21,164.41 96.38,164.41 96.38,167.24 99.21,167.24 102.05,167.24
                   102.05,170.08 104.88,170.08 107.72,170.08 110.55,170.08 113.39,170.08 113.39,167.24
                   116.22,167.24 119.06,167.24 119.06,164.41 121.89,164.41 124.72,164.41 124.72,167.24
                   121.89,167.24 121.89,170.08 119.06,170.08 119.06,172.91 119.06,175.75 119.06,178.58
                   119.06,181.42 116.22,181.42 113.39,181.42 113.39,184.25 116.22,184.25 116.22,187.09
                   119.06,187.09 119.06,184.25 119.06,181.42 121.89,181.42 121.89,184.25 124.72,184.25
                   127.56,184.25 130.39,184.25 130.39,181.42 127.56,181.42 124.72,181.42 124.72,178.58
                   121.89,178.58 121.89,175.75 121.89,172.91 121.89,170.08 124.72,170.08 124.72,167.24
                   127.56,167.24 130.39,167.24 130.39,164.41 130.39,161.57 133.23,161.57 133.23,164.41
                   136.06,164.41 138.9,164.41 138.9,167.24 136.06,167.24 136.06,170.08 138.9,170.08
                   138.9,167.24 141.73,167.24 141.73,164.41 141.73,161.57 144.57,161.57 144.57,158.74
                   147.4,158.74 147.4,161.57 150.24,161.57 150.24,164.41 153.07,164.41 153.07,161.57
                   150.24,161.57 150.24,158.74 147.4,158.74 147.4,155.91 144.57,155.91 144.57,153.07
                   141.73,153.07 141.73,150.24 144.57,150.24 144.57,147.4 141.73,147.4 141.73,150.24
                   138.9,150.24 138.9,153.07 136.06,153.07 133.23,153.07 133.23,150.24 136.06,150.24
                   136.06,147.4 136.06,144.57 133.23,144.57 133.23,141.73 133.23,138.9 133.23,136.06
                   130.39,136.06 127.56,136.06 127.56,133.23 130.39,133.23 130.39,130.39 133.23,130.39
                   133.23,127.56 136.06,127.56 136.06,124.72 138.9,124.72 138.9,121.89 136.06,121.89
                   136.06,119.06 136.06,116.22 138.9,116.22 141.73,116.22 141.73,119.06 144.57,119.06
                   147.4,119.06 147.4,116.22 150.24,116.22 150.24,113.39 150.24,110.55 147.4,110.55
                   147.4,113.39 147.4,116.22 144.57,116.22 141.73,116.22 141.73,113.39 138.9,113.39
                   136.06,113.39 136.06,116.22 133.23,116.22 133.23,113.39 130.39,113.39 130.39,116.22
                   133.23,116.22 133.23,119.06 133.23,121.89 133.23,124.72 130.39,124.72 130.39,127.56
                   130.39,130.39 127.56,130.39 127.56,127.56 124.72,127.56 124.72,124.72 127.56,124.72
                   127.56,121.89 130.39,121.89 130.39,119.06 127.56,119.06 127.56,121.89 124.72,121.89
                   124.72,119.06 124.72,116.22 121.89,116.22 121.89,113.39 121.89,110.55 121.89,107.72
                   119.06,107.72 119.06,104.88 119.06,102.05 116.22,102.05 116.22,99.21 113.39,99.21
                   113.39,96.38 116.22,96.38 116.22,93.54 119.06,93.54 119.06,90.71 121.89,90.71
                   121.89,87.87 119.06,87.87 119.06,90.71 116.22,90.71 116.22,93.54 113.39,93.54
                   113.39,90.71 110.55,90.71 110.55,87.87 113.39,87.87 113.39,85.04 116.22,85.04
                   119.06,85.04 119.06,82.2 121.89,82.2 121.89,79.37 121.89,76.54 121.89,73.7
                   124.72,73.7 127.56,73.7 127.56,76.54 130.39,76.54 130.39,73.7 130.39,70.87
                   127.56,70.87 124.72,70.87 124.72,68.03 127.56,68.03 130.39,68.03 133.23,68.03
                   133.23,70.87 133.23,73.7 133.23,76.54 136.06,76.54 136.06,73.7 136.06,70.87
                   136.06,68.03 133.23,68.03 133.23,65.2 133.23,62.36 133.23,59.53" />
</svg>
